<svg data-v-0dd9719b="" version="1.0" xmlns="http://www.w3.org/2000/svg" xmlns:xlink="http://www.w3.org/1999/xlink" width="100%" height="100%" viewBox="0 0 340.000000 250.000000" preserveAspectRatio="xMidYMid meet" color-interpolation-filters="sRGB" style="margin: auto;"> <rect data-v-0dd9719b="" x="0" y="0" width="100%" height="100%" fill="#fff" fill-opacity="1" class="background"></rect> <rect data-v-0dd9719b="" x="0" y="0" width="100%" height="100%" fill="url(#watermark)" fill-opacity="1" class="watermarklayer"></rect> <g data-v-0dd9719b="" fill="#3699ea" class="icon-text-wrapper icon-svg-group iconsvg" transform="translate(48.980003356933594,96.67753791814367)"><g class="iconsvg-imagesvg" transform="translate(0,0)"><g><rect fill="#3699ea" fill-opacity="0" stroke-width="2" x="0" y="0" width="60" height="56.644921310763486" class="image-rect"></rect> <svg x="0" y="0" width="60" height="56.644921310763486" filtersec="colorsb663506361" class="image-svg-svg primary" style="overflow: visible;"><svg xmlns="http://www.w3.org/2000/svg" viewBox="-0.003525275969877839 -0.0038033658638596535 264.3553466796875 249.5738983154297"><g><g fill="#3699ea"><path d="M88.26 14.26a19 19 0 0 0 18.69 5.47l65.67-17a1.38 1.38 0 0 0-.37-2.73L87.36 1a5 5 0 0 0-3.63 8.44zM204.69 14.78a10.81 10.81 0 0 0-14-7l-65.62 23.58a5.34 5.34 0 0 0-.92 9.62l98.48 58.41a4.39 4.39 0 0 0 6.43-5.06zM103 177.28a6.6 6.6 0 0 0 9.88 5.69l99.32-57.07.09-.05a6.62 6.62 0 0 0 .08-11.44L112.1 54.94a6.42 6.42 0 0 0-9.7 5.55zM263.73 136.83a5.62 5.62 0 0 0-5.94-8.11 18.67 18.67 0 0 0-14.57 12.6l-27.67 85.05a.92.92 0 0 0 1.69.7zM258.31 113.62a4.34 4.34 0 0 0 4.7-6.3L217.6 22.4a.76.76 0 0 0-1.39.63L246 103.09a16.74 16.74 0 0 0 12.31 10.53zM75.55 180.29a5.87 5.87 0 0 0 9.24-4.84l-.53-112.18A5.5 5.5 0 0 0 75.34 59L3.2 116.43A8.46 8.46 0 0 0 3.62 130zM2.32 99.68a1.64 1.64 0 0 0 2.53 2l66.77-62a11.35 11.35 0 0 0 .6-16l-7.49-8.08A8.45 8.45 0 0 0 51.25 17zM107.85 219.33a15.23 15.23 0 0 0-17.45 5.08l-10.09 13.38a5.83 5.83 0 0 0 4.51 9.35l93.49 2.43a1.9 1.9 0 0 0 .71-3.67zM226.49 147.65a4.73 4.73 0 0 0-6.94-5.3l-95.85 55.31a5.83 5.83 0 0 0 .5 10.36l66.92 30.4a9.55 9.55 0 0 0 13.2-6.28zM74.21 215.48a11.75 11.75 0 0 0-2.06-16.19L6 146.19a2.07 2.07 0 0 0-3.08 2.67l47.64 80.84a7.54 7.54 0 0 0 12.54.68z"></path></g></g></svg></svg> <!----></g></g> <g transform="translate(67,3.5712108612060547)"><g data-gra="path-name" fill-rule="" class="tp-name iconsvg-namesvg" transform="translate(0,0)"><g transform="scale(1)"><g><path d="M19.41-9.63L19.41-0.56 27-0.56 27-9.63 19.41-9.63ZM19.58-10.65L26.68-10.65 28.48-12.66 32.38-9.77Q31.96-9.18 30.97-9.04L30.97-9.04 30.97 1.69Q30.9 1.9 29.72 2.29 28.55 2.67 27.67 2.67L27.67 2.67 27 2.67 27 0.42 19.41 0.42 19.41 1.86Q19.41 2.04 18.91 2.34 18.42 2.64 17.6 2.88 16.77 3.13 16 3.13L16 3.13 15.36 3.13 15.36-12.38 19.58-10.65ZM17.02-16.56L24.36-16.56 26.4-19.34Q28.69-17.44 30.06-16.1L30.06-16.1Q29.88-15.5 29.04-15.5L29.04-15.5 17.33-15.5 17.02-16.56ZM6.01-25.49L6.01-8.44 9.21-8.44 9.21-25.49 6.01-25.49ZM20.71-30.83L20.71-30.83 26.19-29.04Q25.91-28.3 24.82-28.34L24.82-28.34Q26.3-25.28 29.23-22.64 32.17-20 35.4-18.42L35.4-18.42 35.33-17.96Q33.08-16.59 32.73-14.34L32.73-14.34Q30.09-16.56 27.88-20.04 25.66-23.52 24.33-27.35L24.33-27.35Q20.43-18.35 13.01-13.75L13.01-13.75 12.97-13.78 12.97-5.77Q12.94-5.48 11.87-4.99 10.79-4.5 9.84-4.5L9.84-4.5 9.21-4.5 9.21-7.38 6.01-7.38 6.01-3.83Q6.01-3.48 5.04-2.99 4.08-2.5 2.95-2.5L2.95-2.5 2.36-2.5 2.36-28.16 6.19-26.51 8.86-26.51 10.69-28.55 14.45-25.59Q13.96-25.03 12.97-24.86L12.97-24.86 12.97-14.52Q15.47-17.61 17.56-21.92 19.65-26.23 20.71-30.83ZM64.55-22.43L64.55-22.43 46.72-22.43Q42.61-17.05 37.23-13.78L37.23-13.78 36.91-14.1Q39.45-17.16 41.87-21.67 44.3-26.19 45.77-30.8L45.77-30.8 51.64-28.34Q51.29-27.6 50.13-27.7L50.13-27.7Q48.73-25.17 47.5-23.45L47.5-23.45 64.37-23.45 66.73-25.73 70.7-21.94Q70.28-21.52 69.26-21.48L69.26-21.48Q66.45-18.28 62.82-15.79L62.82-15.79 62.51-16Q63.67-18.88 64.55-22.43ZM45.28-16.38L45.28-16.38 50.8-13.96Q50.55-13.39 49.46-13.43L49.46-13.43Q44.72-4.82 37.55-0.7L37.55-0.7 37.23-1.09Q39.97-4.01 42.12-8.28 44.26-12.55 45.28-16.38ZM52.52-2.29L52.52-2.29 52.52-20.5 58.11-19.97Q58.01-19.2 56.85-19.05L56.85-19.05 56.85-1.97Q56.85 0.53 55.74 1.69 54.63 2.85 51.01 3.2L51.01 3.2Q50.8 0.95 49.96 0.11L49.96 0.11Q49.01-0.95 46.37-1.41L46.37-1.41 46.37-1.86Q50.8-1.62 51.68-1.62L51.68-1.62Q52.52-1.62 52.52-2.29ZM59.34-15.54L59.34-15.54 59.73-15.79Q66.55-12.52 68.87-7.95L68.87-7.95Q70.31-5.1 69.43-3.16L69.43-3.16Q68.77-1.65 67.25-2L67.25-2Q66.59-2.18 65.92-2.71L65.92-2.71Q65.32-5.7 63.46-9.18 61.59-12.66 59.34-15.54ZM74.64-29.92L74.64-29.92 74.92-30.13Q79.98-29.64 81.28-27.25L81.28-27.25Q82.09-25.77 81.14-24.61 80.19-23.45 78.64-24.01L78.64-24.01Q78.26-24.15 77.91-24.4L77.91-24.4Q77.2-27.21 74.64-29.92ZM72.63-21.66L72.63-21.66 72.98-21.9Q77.7-21.48 78.89-19.23L78.89-19.23Q79.59-17.86 78.64-16.77L78.64-16.77Q77.7-15.68 76.18-16.28L76.18-16.28Q75.87-16.42 75.55-16.63L75.55-16.63Q74.99-19.3 72.63-21.66ZM82.65-25.14L82.65-25.14 83.21-25Q80.12-12.69 79.56-9.81L79.56-9.81Q79.1-7.42 79.14-6.29L79.14-6.29Q79.17-5.55 79.91-3.59 80.65-1.62 80.58 0.21L80.58 0.21Q80.51 1.55 79.72 2.39 78.93 3.23 77.63 3.23L77.63 3.23Q76.01 3.23 75.62 1.37L75.62 1.37Q76.11-1.41 76.03-3.67 75.94-5.94 75.3-6.36L75.3-6.36Q74.6-6.86 73.48-6.96L73.48-6.96 73.48-7.63 75.06-7.63Q75.48-7.63 75.67-7.75 75.87-7.88 76.08-8.44L76.08-8.44Q76.61-9.42 77.43-11.51 78.26-13.61 82.65-25.14ZM81.53 3.13L81.53 3.13 81.25 2.71Q83.6 1.2 85.8-1.16 88-3.52 89.16-5.59L89.16-5.59 93.9-2.81Q93.55-2.25 92.57-2.43L92.57-2.43Q90.6-0.7 87.64 0.81 84.69 2.32 81.53 3.13ZM95.94-4.71L95.94-4.71 96.22-4.99Q102.73-4.22 104.94-1.2L104.94-1.2Q106.24 0.53 105.47 1.93L105.47 1.93Q104.8 3.2 103.22 2.88L103.22 2.88Q102.87 2.81 102.48 2.64L102.48 2.64Q101.53 0.84 99.69-1.18 97.84-3.2 95.94-4.71ZM95.52-13.68L90.11-13.68 90.11-7.21 95.52-7.21 95.52-13.68ZM99.46-7.21L101-7.21 103.08-10.3Q105.36-8.16 106.66-6.79L106.66-6.79Q106.49-6.19 105.68-6.19L105.68-6.19 81.7-6.19 81.46-7.21 86.03-7.21 86.03-19.83Q85.15-19.2 84.13-19.51 83.11-19.83 82.86-20.79 82.62-21.76 83.6-23.17L83.6-23.17Q85.57-24.05 85.82-27.11L85.82-27.11 86.31-27.11Q86.73-25.98 86.91-25.24L86.91-25.24 94.01-25.24Q93.45-25.49 93.16-25.7L93.16-25.7Q92.92-28.34 91.05-30.66L91.05-30.66 91.34-30.9Q95.94-30.45 97-28.23L97-28.23Q97.63-26.82 96.57-25.77L96.57-25.77Q96.26-25.42 95.84-25.24L95.84-25.24 101.57-25.24 103.61-27.32 107.23-23.84Q106.91-23.52 105.93-23.41L105.93-23.41Q103.64-21.38 102.16-20.36L102.16-20.36 101.81-20.57Q101.85-20.99 101.87-21.6 101.88-22.22 101.9-23.01 101.92-23.8 101.92-24.19L101.92-24.19 87.12-24.19Q87.47-22.18 86.94-20.92L86.94-20.92 90.18-19.44Q95.91-21.3 99-23.13L99-23.13 102.94-19.27Q102.23-18.7 100.62-19.34L100.62-19.34Q95.24-18.49 90.11-18.35L90.11-18.35 90.11-14.7 99.14-14.7 101.32-17.61Q103.75-15.64 105.19-14.27L105.19-14.27Q105.01-13.68 104.2-13.68L104.2-13.68 99.46-13.68 99.46-7.21ZM115.17-5.63L115.17-0.25 120.87-0.25 120.87-5.63 115.17-5.63ZM120.87-6.64L120.87-11.71 115.17-11.71 115.17-6.64 120.87-6.64ZM120.48-12.73L122.31-14.7 125.96-11.85Q125.61-11.36 124.66-11.14L124.66-11.14 124.66 1.76Q124.63 1.97 123.5 2.37 122.38 2.78 121.5 2.78L121.5 2.78 120.87 2.78 120.87 0.81 115.17 0.81 115.17 1.9Q115.17 2.07 114.73 2.37 114.29 2.67 113.52 2.9 112.75 3.13 112.01 3.13L112.01 3.13 111.45 3.13 111.45-14.34 115.35-12.73 120.48-12.73ZM119.32-23.27L116.47-23.27 116.47-16.73 119.32-16.73 119.32-23.27ZM137.99-11.64L139.96-13.57 143.54-10.62Q143.16-10.16 142.14-10.02L142.14-10.02Q141.93-4.46 141.36-1.74 140.8 0.98 139.61 1.97L139.61 1.97Q138.16 3.13 135.32 3.13L135.32 3.13Q135.32 1.48 134.65 0.81L134.65 0.81Q133.88 0.04 131.55-0.39L131.55-0.39 131.59-0.91Q134.72-0.67 135.84-0.67L135.84-0.67Q136.55-0.67 136.9-0.98L136.9-0.98Q137.64-1.65 137.99-5.2L137.99-5.2Q137.78-4.89 137.14-4.89L137.14-4.89 125.44-4.89 125.12-5.91 133.14-5.91 134.89-8.19Q136.79-6.71 138.02-5.55L138.02-5.55Q138.23-7.63 138.34-10.58L138.34-10.58 130.92-10.58 129.73-8.75 126.07-11Q126.53-11.53 127.16-11.95L127.16-11.95 127.16-15.82Q126.74-15.71 126.63-15.71L126.63-15.71 109.51-15.71 109.23-16.73 112.99-16.73 112.99-23.27 110.07-23.27 109.83-24.26 112.99-24.26 112.99-30.34 117.67-29.88Q117.56-29.11 116.47-28.93L116.47-28.93 116.47-24.26 119.32-24.26 119.32-30.3 124-29.85Q123.89-29.11 122.8-28.93L122.8-28.93 122.8-24.36 124.17-26.65Q125.79-24.96 126.7-23.84L126.7-23.84Q126.6-23.27 125.82-23.27L125.82-23.27 122.8-23.27 122.8-16.73 122.98-16.73 124.66-19.55Q126.11-18.04 127.16-16.8L127.16-16.8 127.16-27.91 131.17-26.3Q131.45-28.97 131.55-30.55L131.55-30.55 137-29.6Q136.79-28.76 135.63-28.65L135.63-28.65Q134.58-27.6 133.1-26.3L133.1-26.3 136.93-26.3 138.8-28.13 142.21-25.35Q141.82-24.93 140.84-24.71L140.84-24.71Q140.77-19.2 140.43-17.02 140.1-14.84 139.11-14.03L139.11-14.03Q137.74-12.97 135.6-12.97L135.6-12.97Q135.6-14.8 135.11-15.36L135.11-15.36Q134.44-16.1 133.14-16.38L133.14-16.38 133.14-16.91Q134.68-16.77 135.7-16.77L135.7-16.77Q136.37-16.77 136.62-17.02L136.62-17.02Q137.21-17.72 137.32-25.28L137.32-25.28 130.64-25.28 130.64-23.52 130.89-23.66Q134.79-22.71 135.49-20.64L135.49-20.64Q135.91-19.34 134.93-18.53L134.93-18.53Q133.84-17.65 132.57-18.49L132.57-18.49Q132.36-18.63 132.19-18.81L132.19-18.81Q132.19-20.95 130.64-23.31L130.64-23.31 130.64-11.64 137.99-11.64ZM171.53-14.73L171.53-20.78 153.91-20.78 153.91-16.98Q153.91-15.54 153.88-14.73L153.88-14.73 171.53-14.73ZM171.53-12.2L171.53-13.71 153.84-13.71Q153.74-11.29 153.33-9.19 152.93-7.1 152.07-4.82 151.21-2.53 149.55-0.49 147.9 1.55 145.58 3.13L145.58 3.13 145.2 2.78Q146.64 0.67 147.57-1.79 148.5-4.25 148.9-6.98 149.31-9.7 149.45-11.94 149.59-14.17 149.59-17.12L149.59-17.12 149.59-27.91 154.05-26.47Q164.99-28.2 171.88-30.55L171.88-30.55 175.78-26.54Q175.15-25.98 173.43-26.65L173.43-26.65Q164.39-25.42 153.91-25.35L153.91-25.35 153.91-21.8 171.18-21.8 173.18-23.98 177.4-20.81Q176.94-20.21 175.96-20.04L175.96-20.04 175.96-13.15Q175.92-13.04 175.32-12.81 174.73-12.59 173.85-12.39 172.97-12.2 172.3-12.2L172.3-12.2 171.53-12.2ZM158.34-7.52L158.34-0.81 171.42-0.81 171.42-7.52 158.34-7.52ZM158.59-8.58L171.11-8.58 173.11-10.76 177.29-7.59Q176.98-7.14 176.03-6.93L176.03-6.93 176.03 1.93Q175.99 2.07 175.38 2.32 174.76 2.57 173.85 2.78 172.93 2.99 172.27 2.99L172.27 2.99 171.42 2.99 171.42 0.21 158.34 0.21 158.34 1.83Q158.34 2.04 157.8 2.36 157.25 2.67 156.32 2.94 155.39 3.2 154.55 3.2L154.55 3.2 153.95 3.2 153.95-10.41 158.59-8.58Z" transform="translate(-2.3600001335144043, 30.899999618530273)"></path></g> <!----> <!----> <!----> <!----> <!----> <!----> <!----></g></g> <g data-gra="path-slogan" fill-rule="" class="tp-slogan iconsvg-slogansvg" fill="#3699ea" transform="translate(5,40.130001068115234)"><rect x="0" height="1" y="4.185000419616699" width="36.97999572753906"></rect> <rect height="1" y="4.185000419616699" width="36.97999572753906" x="128.05999755859375"></rect> <g transform="translate(39.97999572753906,0)"><g transform="scale(1)"><path d="M2.06-5.06L6.56-5.06L6.56-8.58L7.73-8.58L7.73 0L6.56 0L6.56-3.98L2.06-3.98L2.06 0L0.89 0L0.89-8.58L2.06-8.58L2.06-5.06ZM15.19 0L14.34-2.48L10.88-2.48L9.98 0L8.81 0L12.05-8.58L13.36-8.58L16.45 0L15.19 0ZM12.61-7.31L11.25-3.52L13.92-3.52L12.66-7.31L12.61-7.31ZM21.61-3.70L18.80-3.70L18.80 0L17.63 0L17.63-8.58L21.61-8.58Q24.47-8.58 24.47-6.28L24.47-6.28Q24.47-4.88 23.25-4.22L23.25-4.22Q24.28-3.94 24.28-2.58L24.28-2.58L24.38-1.03Q24.33-0.38 24.80-0.19L24.80-0.19L24.80 0L23.34 0Q23.20-0.61 23.16-2.16L23.16-2.16Q23.20-3.70 21.61-3.70L21.61-3.70ZM21.70-7.64L18.80-7.64L18.80-4.69L21.52-4.69Q23.25-4.69 23.25-6.19L23.25-6.19Q23.25-7.64 21.70-7.64L21.70-7.64ZM29.34-7.64L27.28-7.64L27.28-4.97L29.34-4.97Q31.17-4.92 31.13-6.38L31.13-6.38Q31.13-7.64 29.34-7.64L29.34-7.64ZM29.81 0L26.11 0L26.11-8.58L29.91-8.58Q32.20-8.48 32.30-6.42L32.30-6.42Q32.30-5.16 31.17-4.64L31.17-4.64Q32.77-4.08 32.77-2.53L32.77-2.53Q32.63-0.09 29.81 0L29.81 0ZM29.53-3.98L27.28-3.98L27.28-0.98L29.77-0.98Q31.55-1.03 31.59-2.53L31.59-2.53Q31.59-3.98 29.53-3.98L29.53-3.98ZM34.27-8.58L35.44-8.58L35.44 0L34.27 0L34.27-8.58ZM38.81-8.58L43.13-1.64L43.13-8.58L44.25-8.58L44.25 0L42.94 0L38.58-6.94L38.53-6.94L38.53 0L37.41 0L37.41-8.58L38.81-8.58ZM54.38-1.08L53.48-1.78L54.09-2.48L55.17-1.64Q56.16-2.63 56.16-4.27L56.16-4.27Q55.97-7.64 53.16-7.83L53.16-7.83Q50.30-7.69 50.16-4.27L50.16-4.27Q50.30-0.94 53.16-0.80L53.16-0.80Q53.86-0.80 54.38-1.08L54.38-1.08ZM56.11-0.94L57.23-0.05L56.67 0.56L55.36-0.33Q54.52 0.14 53.16 0.14L53.16 0.14Q49.22 0 48.94-4.27L48.94-4.27Q49.17-8.72 53.16-8.81L53.16-8.81Q57.05-8.67 57.33-4.27L57.33-4.27Q57.28-2.20 56.11-0.94L56.11-0.94ZM64.36-3.19L64.36-8.58L65.53-8.58L65.53-3.05Q65.39 0.05 62.02 0.14L62.02 0.14Q58.88 0.05 58.73-2.86L58.73-2.86L58.73-8.58L59.91-8.58L59.91-3.19Q59.95-0.84 62.06-0.80L62.06-0.80Q64.36-0.84 64.36-3.19L64.36-3.19ZM68.63-1.03L73.78-1.03L73.78 0L67.45 0L67.45-8.58L73.69-8.58L73.69-7.59L68.63-7.59L68.63-4.92L73.31-4.92L73.31-3.89L68.63-3.89L68.63-1.03ZM80.30-1.08L79.41-1.78L80.02-2.48L81.09-1.64Q82.08-2.63 82.08-4.27L82.08-4.27Q81.89-7.64 79.08-7.83L79.08-7.83Q76.22-7.69 76.08-4.27L76.08-4.27Q76.22-0.94 79.08-0.80L79.08-0.80Q79.78-0.80 80.30-1.08L80.30-1.08ZM82.03-0.94L83.16-0.05L82.59 0.56L81.28-0.33Q80.44 0.14 79.08 0.14L79.08 0.14Q75.14 0 74.86-4.27L74.86-4.27Q75.09-8.72 79.08-8.81L79.08-8.81Q82.97-8.67 83.25-4.27L83.25-4.27Q83.20-2.20 82.03-0.94L82.03-0.94ZM84.80-8.58L85.97-8.58L85.97 0L84.80 0L84.80-8.58Z" transform="translate(-0.890625, 8.8125)"></path></g></g></g></g></g><defs v-gra="od"></defs></svg>